<svg height="512pt" viewBox="0 -46 512 512" width="512pt" xmlns="http://www.w3.org/2000/svg"><path d="m120 180c-66.167969 0-120 53.832031-120 120s53.832031 120 120 120 120-53.832031 120-120-53.832031-120-120-120zm0 210c-49.625 0-90-40.375-90-90s40.375-90 90-90 90 40.375 90 90-40.375 90-90 90zm0 0"/><path d="m120 255c-24.8125 0-45 20.1875-45 45s20.1875 45 45 45 45-20.1875 45-45-20.1875-45-45-45zm0 60c-8.269531 0-15-6.730469-15-15s6.730469-15 15-15 15 6.730469 15 15-6.730469 15-15 15zm0 0"/><path d="m482 262.980469v-52.980469c0-33.085938-26.914062-60-60-60h-30v-75c0-8.269531 6.730469-15 15-15v-30c-24.8125 0-45 20.1875-45 45v75h-65.839844l-36-120h24.839844v-30h-240v30h30v95.738281c-25.347656 6.554688-49.171875 18.578125-69.550781 35.410157l19.101562 23.132812c26.769531-22.105469 60.667969-34.28125 95.449219-34.28125 82.710938 0 150 67.289062 150 150v45h63.257812c7.164063 42.511719 44.226563 75 88.742188 75 49.625 0 90-40.375 90-90 0-26.59375-11.597656-50.527344-30-67.019531zm-377-142.34375v-90.636719h123.839844l36 120h-45.457032c-28.5-18.945312-62.671874-30-99.382812-30-5.019531 0-10.023438.21875-15 .636719zm149.039062 59.363281h167.960938c16.542969 0 30 13.457031 30 30v35.148438c-9.386719-3.328126-19.484375-5.148438-30-5.148438h-132.296875c-7.925781-22.347656-20.140625-42.679688-35.664063-60zm43.445313 90h57.496094c-11.113281 12.398438-18.839844 27.886719-21.722657 45h-33.257812v-15c0-10.21875-.867188-20.238281-2.515625-30zm124.515625 120c-33.085938 0-60-26.914062-60-60s26.914062-60 60-60 60 26.914062 60 60-26.914062 60-60 60zm0 0"/><path d="m437 330c0 8.285156-6.714844 15-15 15s-15-6.714844-15-15 6.714844-15 15-15 15 6.714844 15 15zm0 0"/></svg>